<svg width="33" height="32" viewBox="0 0 33 32" fill="none" xmlns="http://www.w3.org/2000/svg">
<path d="M27.5 5H5.5C4.96957 5 4.46086 5.21071 4.08579 5.58579C3.71071 5.96086 3.5 6.46957 3.5 7V25C3.5 25.5304 3.71071 26.0391 4.08579 26.4142C4.46086 26.7893 4.96957 27 5.5 27H27.5C28.0304 27 28.5391 26.7893 28.9142 26.4142C29.2893 26.0391 29.5 25.5304 29.5 25V7C29.5 6.46957 29.2893 5.96086 28.9142 5.58579C28.5391 5.21071 28.0304 5 27.5 5ZM12.1 18.2C12.3122 18.3591 12.4524 18.596 12.4899 18.8586C12.5275 19.1211 12.4591 19.3878 12.3 19.6C12.1409 19.8122 11.904 19.9524 11.6414 19.99C11.3789 20.0275 11.1122 19.9591 10.9 19.8L6.9 16.8C6.7758 16.7069 6.675 16.5861 6.60557 16.4472C6.53614 16.3084 6.5 16.1552 6.5 16C6.5 15.8448 6.53614 15.6916 6.60557 15.5528C6.675 15.4139 6.7758 15.2931 6.9 15.2L10.9 12.2C11.1122 12.0409 11.3789 11.9725 11.6414 12.0101C11.904 12.0476 12.1409 12.1878 12.3 12.4C12.4591 12.6122 12.5275 12.8789 12.4899 13.1414C12.4524 13.404 12.3122 13.6409 12.1 13.8L9.16625 16L12.1 18.2ZM19.4613 9.275L15.4613 23.275C15.4272 23.4035 15.3678 23.5239 15.2866 23.6292C15.2054 23.7345 15.1041 23.8225 14.9885 23.8882C14.8728 23.9538 14.7453 23.9958 14.6133 24.0115C14.4813 24.0273 14.3475 24.0166 14.2196 23.98C14.0918 23.9434 13.9726 23.8818 13.8689 23.7986C13.7652 23.7154 13.6791 23.6123 13.6157 23.4955C13.5523 23.3786 13.5129 23.2503 13.4996 23.118C13.4864 22.9857 13.4997 22.8521 13.5387 22.725L17.5387 8.725C17.6156 8.47467 17.7876 8.26448 18.0178 8.13961C18.248 8.01473 18.518 7.98512 18.7697 8.05715C19.0215 8.12918 19.235 8.29709 19.3643 8.52481C19.4936 8.75253 19.5284 9.02189 19.4613 9.275ZM26.1 16.8L22.1 19.8C21.8878 19.9591 21.6211 20.0275 21.3586 19.99C21.096 19.9524 20.8591 19.8122 20.7 19.6C20.5409 19.3878 20.4725 19.1211 20.51 18.8586C20.5476 18.596 20.6878 18.3591 20.9 18.2L23.8337 16L20.9 13.8C20.7949 13.7212 20.7064 13.6225 20.6395 13.5095C20.5726 13.3965 20.5286 13.2714 20.51 13.1414C20.4915 13.0114 20.4987 12.879 20.5313 12.7518C20.5639 12.6246 20.6212 12.5051 20.7 12.4C20.7788 12.2949 20.8775 12.2064 20.9905 12.1395C21.1035 12.0726 21.2286 12.0286 21.3586 12.0101C21.4886 11.9915 21.621 11.9987 21.7482 12.0313C21.8754 12.0639 21.9949 12.1212 22.1 12.2L26.1 15.2C26.2242 15.2931 26.325 15.4139 26.3944 15.5528C26.4639 15.6916 26.5 15.8448 26.5 16C26.5 16.1552 26.4639 16.3084 26.3944 16.4472C26.325 16.5861 26.2242 16.7069 26.1 16.8Z" fill="#FB6B1A"/>
</svg>
